<svg xmlns="http://www.w3.org/2000/svg" xmlns:xlink="http://www.w3.org/1999/xlink" width="1500" zoomAndPan="magnify" viewBox="0 0 1125 843.749997" height="1125" preserveAspectRatio="xMidYMid meet" version="1.0"><defs><filter x="0%" y="0%" width="100%" height="100%" id="fe94a6aeb6"><feColorMatrix values="0 0 0 0 1 0 0 0 0 1 0 0 0 0 1 0 0 0 1 0" color-interpolation-filters="sRGB"/></filter><clipPath id="ecbb2a7f69"><path d="M 0.167969 0 L 1124.832031 0 L 1124.832031 843.5 L 0.167969 843.5 Z M 0.167969 0 " clip-rule="nonzero"/></clipPath><clipPath id="a28f76623b"><path d="M 0.167969 0 L 1124.832031 0 L 1124.832031 843.5 L 0.167969 843.5 Z M 0.167969 0 " clip-rule="nonzero"/></clipPath><mask id="1393df8bb2"><g filter="url(#fe94a6aeb6)"><rect x="-112.5" width="1350" fill="#000000" y="-84.375" height="1012.499996" fill-opacity="0.47"/></g></mask><clipPath id="91aa7ee7a9"><path d="M 0.167969 0 L 1124.824219 0 L 1124.824219 843.5 L 0.167969 843.5 Z M 0.167969 0 " clip-rule="nonzero"/></clipPath><clipPath id="62316d2c6c"><path d="M 0.167969 0 L 1124.824219 0 L 1124.824219 843.5 L 0.167969 843.5 Z M 0.167969 0 " clip-rule="nonzero"/></clipPath><linearGradient x1="0.00717983" gradientTransform="matrix(-3.294922, 0, 0, -3.294922, 1124.848449, 843.500056)" y1="128" x2="341.33792" gradientUnits="userSpaceOnUse" y2="128" id="bb56c77ab7"><stop stop-opacity="1" stop-color="rgb(100%, 96.858215%, 67.840576%)" offset="0"/><stop stop-opacity="1" stop-color="rgb(100%, 96.739197%, 67.955017%)" offset="0.0078125"/><stop stop-opacity="1" stop-color="rgb(100%, 96.502686%, 68.185425%)" offset="0.015625"/><stop stop-opacity="1" stop-color="rgb(100%, 96.266174%, 68.415833%)" offset="0.0234375"/><stop stop-opacity="1" stop-color="rgb(100%, 96.029663%, 68.64624%)" offset="0.03125"/><stop stop-opacity="1" stop-color="rgb(100%, 95.794678%, 68.875122%)" offset="0.0390625"/><stop stop-opacity="1" stop-color="rgb(100%, 95.558167%, 69.10553%)" offset="0.046875"/><stop stop-opacity="1" stop-color="rgb(100%, 95.321655%, 69.335938%)" offset="0.0546875"/><stop stop-opacity="1" stop-color="rgb(100%, 95.085144%, 69.566345%)" offset="0.0625"/><stop stop-opacity="1" stop-color="rgb(100%, 94.848633%, 69.796753%)" offset="0.0703125"/><stop stop-opacity="1" stop-color="rgb(100%, 94.612122%, 70.027161%)" offset="0.078125"/><stop stop-opacity="1" stop-color="rgb(100%, 94.37561%, 70.257568%)" offset="0.0859375"/><stop stop-opacity="1" stop-color="rgb(100%, 94.139099%, 70.487976%)" offset="0.09375"/><stop stop-opacity="1" stop-color="rgb(100%, 93.902588%, 70.718384%)" offset="0.101563"/><stop stop-opacity="1" stop-color="rgb(100%, 93.666077%, 70.948792%)" offset="0.109375"/><stop stop-opacity="1" stop-color="rgb(100%, 93.429565%, 71.179199%)" offset="0.117188"/><stop stop-opacity="1" stop-color="rgb(100%, 93.193054%, 71.409607%)" offset="0.125"/><stop stop-opacity="1" stop-color="rgb(100%, 92.956543%, 71.640015%)" offset="0.132812"/><stop stop-opacity="1" stop-color="rgb(100%, 92.720032%, 71.870422%)" offset="0.140625"/><stop stop-opacity="1" stop-color="rgb(100%, 92.483521%, 72.10083%)" offset="0.148437"/><stop stop-opacity="1" stop-color="rgb(100%, 92.247009%, 72.331238%)" offset="0.15625"/><stop stop-opacity="1" stop-color="rgb(100%, 92.010498%, 72.561646%)" offset="0.164062"/><stop stop-opacity="1" stop-color="rgb(100%, 91.775513%, 72.792053%)" offset="0.171875"/><stop stop-opacity="1" stop-color="rgb(100%, 91.539001%, 73.022461%)" offset="0.179688"/><stop stop-opacity="1" stop-color="rgb(100%, 91.30249%, 73.252869%)" offset="0.1875"/><stop stop-opacity="1" stop-color="rgb(100%, 91.065979%, 73.483276%)" offset="0.195312"/><stop stop-opacity="1" stop-color="rgb(100%, 90.829468%, 73.713684%)" offset="0.203125"/><stop stop-opacity="1" stop-color="rgb(100%, 90.592957%, 73.944092%)" offset="0.210938"/><stop stop-opacity="1" stop-color="rgb(100%, 90.356445%, 74.1745%)" offset="0.21875"/><stop stop-opacity="1" stop-color="rgb(100%, 90.119934%, 74.404907%)" offset="0.226562"/><stop stop-opacity="1" stop-color="rgb(100%, 89.883423%, 74.635315%)" offset="0.234375"/><stop stop-opacity="1" stop-color="rgb(100%, 89.646912%, 74.865723%)" offset="0.242187"/><stop stop-opacity="1" stop-color="rgb(100%, 89.4104%, 75.09613%)" offset="0.25"/><stop stop-opacity="1" stop-color="rgb(100%, 89.173889%, 75.326538%)" offset="0.257813"/><stop stop-opacity="1" stop-color="rgb(100%, 88.937378%, 75.556946%)" offset="0.265625"/><stop stop-opacity="1" stop-color="rgb(100%, 88.700867%, 75.787354%)" offset="0.273438"/><stop stop-opacity="1" stop-color="rgb(100%, 88.464355%, 76.017761%)" offset="0.28125"/><stop stop-opacity="1" stop-color="rgb(100%, 88.227844%, 76.248169%)" offset="0.289063"/><stop stop-opacity="1" stop-color="rgb(100%, 87.991333%, 76.478577%)" offset="0.296875"/><stop stop-opacity="1" stop-color="rgb(100%, 87.756348%, 76.708984%)" offset="0.304688"/><stop stop-opacity="1" stop-color="rgb(100%, 87.519836%, 76.939392%)" offset="0.3125"/><stop stop-opacity="1" stop-color="rgb(100%, 87.283325%, 77.1698%)" offset="0.320313"/><stop stop-opacity="1" stop-color="rgb(100%, 87.046814%, 77.400208%)" offset="0.328125"/><stop stop-opacity="1" stop-color="rgb(100%, 86.810303%, 77.630615%)" offset="0.335938"/><stop stop-opacity="1" stop-color="rgb(100%, 86.573792%, 77.861023%)" offset="0.34375"/><stop stop-opacity="1" stop-color="rgb(100%, 86.33728%, 78.091431%)" offset="0.351562"/><stop stop-opacity="1" stop-color="rgb(100%, 86.100769%, 78.321838%)" offset="0.359375"/><stop stop-opacity="1" stop-color="rgb(100%, 85.864258%, 78.552246%)" offset="0.367188"/><stop stop-opacity="1" stop-color="rgb(100%, 85.627747%, 78.782654%)" offset="0.375"/><stop stop-opacity="1" stop-color="rgb(100%, 85.391235%, 79.013062%)" offset="0.382813"/><stop stop-opacity="1" stop-color="rgb(100%, 85.154724%, 79.243469%)" offset="0.390625"/><stop stop-opacity="1" stop-color="rgb(100%, 84.918213%, 79.473877%)" offset="0.398438"/><stop stop-opacity="1" stop-color="rgb(100%, 84.681702%, 79.704285%)" offset="0.40625"/><stop stop-opacity="1" stop-color="rgb(100%, 84.44519%, 79.934692%)" offset="0.414063"/><stop stop-opacity="1" stop-color="rgb(100%, 84.208679%, 80.1651%)" offset="0.421875"/><stop stop-opacity="1" stop-color="rgb(100%, 83.972168%, 80.395508%)" offset="0.429688"/><stop stop-opacity="1" stop-color="rgb(100%, 83.737183%, 80.625916%)" offset="0.4375"/><stop stop-opacity="1" stop-color="rgb(100%, 83.500671%, 80.856323%)" offset="0.445312"/><stop stop-opacity="1" stop-color="rgb(100%, 83.26416%, 81.086731%)" offset="0.453125"/><stop stop-opacity="1" stop-color="rgb(100%, 83.027649%, 81.317139%)" offset="0.460938"/><stop stop-opacity="1" stop-color="rgb(100%, 82.791138%, 81.547546%)" offset="0.46875"/><stop stop-opacity="1" stop-color="rgb(100%, 82.554626%, 81.777954%)" offset="0.476563"/><stop stop-opacity="1" stop-color="rgb(100%, 82.318115%, 82.008362%)" offset="0.484375"/><stop stop-opacity="1" stop-color="rgb(100%, 82.081604%, 82.23877%)" offset="0.492188"/><stop stop-opacity="1" stop-color="rgb(100%, 81.845093%, 82.469177%)" offset="0.5"/><stop stop-opacity="1" stop-color="rgb(100%, 81.608582%, 82.699585%)" offset="0.507812"/><stop stop-opacity="1" stop-color="rgb(100%, 81.37207%, 82.929993%)" offset="0.515625"/><stop stop-opacity="1" stop-color="rgb(100%, 81.135559%, 83.1604%)" offset="0.523438"/><stop stop-opacity="1" stop-color="rgb(100%, 80.899048%, 83.390808%)" offset="0.53125"/><stop stop-opacity="1" stop-color="rgb(100%, 80.662537%, 83.621216%)" offset="0.539063"/><stop stop-opacity="1" stop-color="rgb(100%, 80.426025%, 83.851624%)" offset="0.546875"/><stop stop-opacity="1" stop-color="rgb(100%, 80.189514%, 84.082031%)" offset="0.554688"/><stop stop-opacity="1" stop-color="rgb(100%, 79.953003%, 84.312439%)" offset="0.5625"/><stop stop-opacity="1" stop-color="rgb(100%, 79.718018%, 84.542847%)" offset="0.570312"/><stop stop-opacity="1" stop-color="rgb(100%, 79.481506%, 84.773254%)" offset="0.578125"/><stop stop-opacity="1" stop-color="rgb(100%, 79.244995%, 85.003662%)" offset="0.585938"/><stop stop-opacity="1" stop-color="rgb(100%, 79.008484%, 85.23407%)" offset="0.59375"/><stop stop-opacity="1" stop-color="rgb(100%, 78.771973%, 85.464478%)" offset="0.601562"/><stop stop-opacity="1" stop-color="rgb(100%, 78.535461%, 85.694885%)" offset="0.609375"/><stop stop-opacity="1" stop-color="rgb(100%, 78.29895%, 85.925293%)" offset="0.617188"/><stop stop-opacity="1" stop-color="rgb(100%, 78.062439%, 86.155701%)" offset="0.625"/><stop stop-opacity="1" stop-color="rgb(100%, 77.825928%, 86.386108%)" offset="0.632812"/><stop stop-opacity="1" stop-color="rgb(100%, 77.589417%, 86.616516%)" offset="0.640625"/><stop stop-opacity="1" stop-color="rgb(100%, 77.352905%, 86.846924%)" offset="0.648438"/><stop stop-opacity="1" stop-color="rgb(100%, 77.116394%, 87.077332%)" offset="0.65625"/><stop stop-opacity="1" stop-color="rgb(100%, 76.879883%, 87.307739%)" offset="0.664062"/><stop stop-opacity="1" stop-color="rgb(100%, 76.643372%, 87.538147%)" offset="0.671875"/><stop stop-opacity="1" stop-color="rgb(100%, 76.40686%, 87.768555%)" offset="0.679688"/><stop stop-opacity="1" stop-color="rgb(100%, 76.170349%, 87.998962%)" offset="0.6875"/><stop stop-opacity="1" stop-color="rgb(100%, 75.933838%, 88.22937%)" offset="0.695312"/><stop stop-opacity="1" stop-color="rgb(100%, 75.698853%, 88.459778%)" offset="0.703125"/><stop stop-opacity="1" stop-color="rgb(100%, 75.462341%, 88.690186%)" offset="0.710938"/><stop stop-opacity="1" stop-color="rgb(100%, 75.22583%, 88.920593%)" offset="0.71875"/><stop stop-opacity="1" stop-color="rgb(100%, 74.989319%, 89.151001%)" offset="0.726563"/><stop stop-opacity="1" stop-color="rgb(100%, 74.752808%, 89.381409%)" offset="0.734375"/><stop stop-opacity="1" stop-color="rgb(100%, 74.516296%, 89.611816%)" offset="0.742188"/><stop stop-opacity="1" stop-color="rgb(100%, 74.279785%, 89.842224%)" offset="0.75"/><stop stop-opacity="1" stop-color="rgb(100%, 74.043274%, 90.072632%)" offset="0.757812"/><stop stop-opacity="1" stop-color="rgb(100%, 73.806763%, 90.30304%)" offset="0.765625"/><stop stop-opacity="1" stop-color="rgb(100%, 73.570251%, 90.533447%)" offset="0.773438"/><stop stop-opacity="1" stop-color="rgb(100%, 73.33374%, 90.763855%)" offset="0.78125"/><stop stop-opacity="1" stop-color="rgb(100%, 73.097229%, 90.994263%)" offset="0.789062"/><stop stop-opacity="1" stop-color="rgb(100%, 72.860718%, 91.22467%)" offset="0.796875"/><stop stop-opacity="1" stop-color="rgb(100%, 72.624207%, 91.455078%)" offset="0.804688"/><stop stop-opacity="1" stop-color="rgb(100%, 72.387695%, 91.685486%)" offset="0.8125"/><stop stop-opacity="1" stop-color="rgb(100%, 72.151184%, 91.915894%)" offset="0.820312"/><stop stop-opacity="1" stop-color="rgb(100%, 71.914673%, 92.146301%)" offset="0.828125"/><stop stop-opacity="1" stop-color="rgb(100%, 71.679688%, 92.376709%)" offset="0.835938"/><stop stop-opacity="1" stop-color="rgb(100%, 71.443176%, 92.607117%)" offset="0.84375"/><stop stop-opacity="1" stop-color="rgb(100%, 71.206665%, 92.837524%)" offset="0.851562"/><stop stop-opacity="1" stop-color="rgb(100%, 70.970154%, 93.067932%)" offset="0.859375"/><stop stop-opacity="1" stop-color="rgb(100%, 70.733643%, 93.29834%)" offset="0.867188"/><stop stop-opacity="1" stop-color="rgb(100%, 70.497131%, 93.528748%)" offset="0.875"/><stop stop-opacity="1" stop-color="rgb(100%, 70.26062%, 93.757629%)" offset="0.882812"/><stop stop-opacity="1" stop-color="rgb(100%, 70.024109%, 93.988037%)" offset="0.890625"/><stop stop-opacity="1" stop-color="rgb(100%, 69.787598%, 94.218445%)" offset="0.898438"/><stop stop-opacity="1" stop-color="rgb(100%, 69.551086%, 94.448853%)" offset="0.90625"/><stop stop-opacity="1" stop-color="rgb(100%, 69.314575%, 94.67926%)" offset="0.914063"/><stop stop-opacity="1" stop-color="rgb(100%, 69.078064%, 94.909668%)" offset="0.921875"/><stop stop-opacity="1" stop-color="rgb(100%, 68.841553%, 95.140076%)" offset="0.929688"/><stop stop-opacity="1" stop-color="rgb(100%, 68.605042%, 95.370483%)" offset="0.9375"/><stop stop-opacity="1" stop-color="rgb(100%, 68.36853%, 95.600891%)" offset="0.945313"/><stop stop-opacity="1" stop-color="rgb(100%, 68.132019%, 95.831299%)" offset="0.953125"/><stop stop-opacity="1" stop-color="rgb(100%, 67.895508%, 96.061707%)" offset="0.960938"/><stop stop-opacity="1" stop-color="rgb(100%, 67.658997%, 96.292114%)" offset="0.96875"/><stop stop-opacity="1" stop-color="rgb(100%, 67.424011%, 96.522522%)" offset="0.976562"/><stop stop-opacity="1" stop-color="rgb(100%, 67.1875%, 96.75293%)" offset="0.984375"/><stop stop-opacity="1" stop-color="rgb(100%, 66.950989%, 96.983337%)" offset="0.992188"/><stop stop-opacity="1" stop-color="rgb(100%, 66.714478%, 97.213745%)" offset="1"/></linearGradient><clipPath id="1294f6144e"><rect x="0" width="1125" y="0" height="844"/></clipPath><clipPath id="e2141fe853"><rect x="0" width="1125" y="0" height="844"/></clipPath></defs><g clip-path="url(#ecbb2a7f69)"><path fill="#ffffff" d="M 0.167969 0 L 1124.832031 0 L 1124.832031 843.5 L 0.167969 843.5 Z M 0.167969 0 " fill-opacity="1" fill-rule="nonzero"/><path fill="#ffffff" d="M 0.167969 0 L 1124.832031 0 L 1124.832031 843.5 L 0.167969 843.5 Z M 0.167969 0 " fill-opacity="1" fill-rule="nonzero"/></g><path fill="#eda2f2" d="M 39.375 59.640625 C 32.976562 63.144531 10.960938 73.707031 13.566406 51.757812 C 16.3125 28.671875 36.863281 45.992188 40.9375 49.679688 C 40.328125 50.339844 39.832031 51.070312 39.441406 51.878906 C 39.050781 52.6875 38.785156 53.535156 38.644531 54.421875 C 38.507812 55.308594 38.5 56.195312 38.621094 57.085938 C 38.746094 57.972656 38.996094 58.824219 39.375 59.640625 Z M 39.375 59.640625 " fill-opacity="1" fill-rule="nonzero"/><path fill="#eda2f2" d="M 32.308594 86.515625 C 12.566406 75.839844 33.953125 63.613281 39.886719 60.597656 C 40.359375 61.359375 40.929688 62.039062 41.605469 62.632812 C 42.277344 63.226562 43.023438 63.710938 43.839844 64.082031 C 44.65625 64.457031 45.507812 64.703125 46.398438 64.824219 C 47.289062 64.945312 48.175781 64.933594 49.0625 64.789062 C 49.910156 71.09375 52.367188 97.367188 32.308594 86.515625 Z M 32.308594 86.515625 " fill-opacity="1" fill-rule="nonzero"/><path fill="#eda2f2" d="M 51.289062 47.527344 C 50.488281 47.171875 49.652344 46.941406 48.785156 46.828125 C 47.917969 46.714844 47.050781 46.726562 46.1875 46.863281 C 45.324219 47 44.496094 47.257812 43.707031 47.636719 C 42.917969 48.011719 42.195312 48.492188 41.546875 49.078125 C 37.425781 44.515625 20.238281 23.984375 43.058594 21.609375 C 65.699219 19.253906 54.304688 42.085938 51.289062 47.527344 Z M 51.289062 47.527344 " fill-opacity="1" fill-rule="nonzero"/><path fill="#eda2f2" d="M 72.21875 80.730469 C 55.191406 96.058594 51.019531 70.480469 50.296875 64.507812 C 51.085938 64.261719 51.832031 63.917969 52.527344 63.46875 C 53.222656 63.019531 53.847656 62.488281 54.398438 61.871094 C 54.949219 61.25 55.40625 60.570312 55.769531 59.828125 C 56.132812 59.085938 56.390625 58.304688 56.542969 57.492188 C 60.683594 58.289062 90.078125 64.640625 72.21875 80.730469 Z M 72.21875 80.730469 " fill-opacity="1" fill-rule="nonzero"/><path fill="#eda2f2" d="M 56.664062 56.554688 C 56.679688 56.386719 56.6875 56.214844 56.691406 56.042969 C 56.710938 55.238281 56.625 54.445312 56.433594 53.664062 C 56.242188 52.878906 55.949219 52.136719 55.558594 51.433594 C 55.167969 50.726562 54.695312 50.085938 54.132812 49.507812 C 53.574219 48.929688 52.945312 48.4375 52.253906 48.027344 C 54.980469 43.371094 69.980469 19.558594 79.128906 41.097656 C 88.082031 62.175781 62.558594 57.816406 56.664062 56.554688 Z M 56.664062 56.554688 " fill-opacity="1" fill-rule="nonzero"/><path fill="#f78e69" d="M 56.691406 56.042969 C 56.691406 56.214844 56.679688 56.386719 56.664062 56.554688 C 56.640625 56.871094 56.597656 57.179688 56.542969 57.492188 C 56.390625 58.304688 56.132812 59.082031 55.765625 59.828125 C 55.402344 60.570312 54.945312 61.25 54.394531 61.867188 C 53.84375 62.488281 53.222656 63.019531 52.527344 63.46875 C 51.832031 63.917969 51.085938 64.261719 50.296875 64.507812 C 49.894531 64.632812 49.480469 64.730469 49.066406 64.792969 C 48.179688 64.9375 47.289062 64.949219 46.402344 64.828125 C 45.511719 64.707031 44.65625 64.460938 43.839844 64.085938 C 43.023438 63.714844 42.28125 63.230469 41.605469 62.636719 C 40.933594 62.042969 40.359375 61.363281 39.890625 60.601562 C 39.699219 60.292969 39.527344 59.972656 39.375 59.644531 C 39 58.832031 38.75 57.980469 38.625 57.089844 C 38.5 56.203125 38.507812 55.316406 38.648438 54.429688 C 38.789062 53.542969 39.050781 52.695312 39.441406 51.886719 C 39.832031 51.078125 40.332031 50.34375 40.941406 49.683594 C 41.136719 49.472656 41.339844 49.269531 41.554688 49.082031 C 42.203125 48.496094 42.925781 48.015625 43.714844 47.640625 C 44.503906 47.261719 45.332031 47.003906 46.195312 46.867188 C 47.058594 46.730469 47.925781 46.71875 48.792969 46.832031 C 49.660156 46.945312 50.496094 47.175781 51.296875 47.53125 C 51.628906 47.675781 51.949219 47.84375 52.261719 48.03125 C 52.953125 48.441406 53.578125 48.9375 54.136719 49.511719 C 54.699219 50.089844 55.171875 50.730469 55.5625 51.4375 C 55.953125 52.140625 56.242188 52.882812 56.433594 53.664062 C 56.625 54.445312 56.710938 55.238281 56.691406 56.042969 Z M 56.691406 56.042969 " fill-opacity="1" fill-rule="nonzero"/><path fill="#fed273" d="M 210.042969 124.738281 C 203.644531 128.242188 181.628906 138.800781 184.238281 116.851562 C 186.984375 93.769531 207.53125 111.085938 211.605469 114.773438 C 211 115.433594 210.5 116.167969 210.109375 116.976562 C 209.71875 117.785156 209.453125 118.632812 209.316406 119.519531 C 209.175781 120.40625 209.167969 121.292969 209.292969 122.179688 C 209.414062 123.070312 209.664062 123.921875 210.042969 124.734375 Z M 210.042969 124.738281 " fill-opacity="1" fill-rule="nonzero"/><path fill="#fed273" d="M 202.976562 151.613281 C 183.234375 140.9375 204.621094 128.710938 210.554688 125.691406 C 211.027344 126.457031 211.601562 127.136719 212.273438 127.730469 C 212.945312 128.324219 213.691406 128.804688 214.507812 129.179688 C 215.324219 129.554688 216.175781 129.800781 217.066406 129.921875 C 217.957031 130.039062 218.84375 130.03125 219.730469 129.886719 C 220.578125 136.1875 223.035156 162.460938 202.976562 151.613281 Z M 202.976562 151.613281 " fill-opacity="1" fill-rule="nonzero"/><path fill="#fed273" d="M 221.957031 112.625 C 221.15625 112.269531 220.324219 112.035156 219.453125 111.921875 C 218.585938 111.8125 217.722656 111.824219 216.855469 111.960938 C 215.992188 112.097656 215.164062 112.355469 214.375 112.730469 C 213.585938 113.109375 212.863281 113.589844 212.214844 114.171875 C 208.09375 109.613281 190.90625 89.078125 213.726562 86.707031 C 236.371094 84.351562 224.972656 107.183594 221.957031 112.625 Z M 221.957031 112.625 " fill-opacity="1" fill-rule="nonzero"/><path fill="#fed273" d="M 242.886719 145.828125 C 225.859375 161.15625 221.6875 135.574219 220.964844 129.605469 C 221.753906 129.359375 222.5 129.011719 223.195312 128.566406 C 223.890625 128.117188 224.515625 127.585938 225.066406 126.964844 C 225.617188 126.347656 226.074219 125.667969 226.4375 124.925781 C 226.804688 124.179688 227.0625 123.402344 227.210938 122.589844 C 231.351562 123.386719 260.75 129.738281 242.886719 145.828125 Z M 242.886719 145.828125 " fill-opacity="1" fill-rule="nonzero"/><path fill="#fed273" d="M 227.335938 121.652344 C 227.347656 121.484375 227.355469 121.3125 227.359375 121.140625 C 227.378906 120.335938 227.292969 119.542969 227.101562 118.757812 C 226.910156 117.976562 226.617188 117.234375 226.226562 116.53125 C 225.839844 115.824219 225.363281 115.183594 224.800781 114.605469 C 224.242188 114.027344 223.613281 113.535156 222.921875 113.121094 C 225.652344 108.46875 240.648438 84.65625 249.796875 106.191406 C 258.75 127.273438 233.230469 122.910156 227.335938 121.652344 Z M 227.335938 121.652344 " fill-opacity="1" fill-rule="nonzero"/><path fill="#a7c957" d="M 227.359375 121.140625 C 227.359375 121.3125 227.347656 121.484375 227.335938 121.652344 C 227.308594 121.964844 227.265625 122.277344 227.210938 122.589844 C 227.058594 123.402344 226.800781 124.179688 226.4375 124.921875 C 226.070312 125.667969 225.613281 126.347656 225.0625 126.964844 C 224.515625 127.585938 223.890625 128.117188 223.195312 128.566406 C 222.5 129.011719 221.753906 129.359375 220.964844 129.605469 C 220.5625 129.730469 220.152344 129.824219 219.734375 129.890625 C 218.847656 130.035156 217.960938 130.042969 217.070312 129.925781 C 216.179688 129.804688 215.328125 129.558594 214.511719 129.183594 C 213.695312 128.808594 212.949219 128.328125 212.277344 127.734375 C 211.601562 127.140625 211.03125 126.460938 210.558594 125.695312 C 210.367188 125.390625 210.195312 125.070312 210.042969 124.742188 C 209.667969 123.929688 209.417969 123.078125 209.292969 122.1875 C 209.171875 121.300781 209.179688 120.410156 209.316406 119.523438 C 209.457031 118.636719 209.722656 117.792969 210.113281 116.984375 C 210.5 116.175781 211 115.441406 211.609375 114.78125 C 211.804688 114.570312 212.007812 114.367188 212.222656 114.175781 C 212.875 113.59375 213.59375 113.113281 214.382812 112.734375 C 215.171875 112.359375 216 112.101562 216.863281 111.964844 C 217.730469 111.828125 218.59375 111.816406 219.460938 111.929688 C 220.332031 112.039062 221.164062 112.273438 221.964844 112.628906 C 222.296875 112.773438 222.617188 112.941406 222.929688 113.125 C 223.621094 113.539062 224.246094 114.03125 224.808594 114.609375 C 225.367188 115.1875 225.839844 115.828125 226.230469 116.53125 C 226.621094 117.238281 226.910156 117.980469 227.101562 118.761719 C 227.292969 119.542969 227.378906 120.335938 227.359375 121.140625 Z M 227.359375 121.140625 " fill-opacity="1" fill-rule="nonzero"/><path fill="#a7c957" d="M 380.710938 59.640625 C 374.3125 63.144531 352.296875 73.707031 354.90625 51.757812 C 357.652344 28.671875 378.199219 45.992188 382.273438 49.679688 C 381.667969 50.339844 381.167969 51.070312 380.777344 51.878906 C 380.386719 52.6875 380.121094 53.535156 379.984375 54.421875 C 379.84375 55.308594 379.835938 56.195312 379.960938 57.085938 C 380.085938 57.972656 380.335938 58.824219 380.710938 59.640625 Z M 380.710938 59.640625 " fill-opacity="1" fill-rule="nonzero"/><path fill="#a7c957" d="M 373.644531 86.515625 C 353.902344 75.839844 375.289062 63.613281 381.222656 60.597656 C 381.695312 61.359375 382.269531 62.039062 382.941406 62.632812 C 383.613281 63.226562 384.359375 63.710938 385.175781 64.082031 C 385.992188 64.457031 386.847656 64.703125 387.734375 64.824219 C 388.625 64.945312 389.511719 64.933594 390.398438 64.789062 C 391.246094 71.09375 393.703125 97.367188 373.644531 86.515625 Z M 373.644531 86.515625 " fill-opacity="1" fill-rule="nonzero"/><path fill="#a7c957" d="M 392.625 47.527344 C 391.824219 47.171875 390.992188 46.941406 390.125 46.828125 C 389.253906 46.714844 388.390625 46.726562 387.527344 46.863281 C 386.660156 47 385.835938 47.257812 385.042969 47.636719 C 384.253906 48.011719 383.535156 48.492188 382.882812 49.078125 C 378.761719 44.515625 361.578125 23.984375 384.394531 21.609375 C 407.039062 19.253906 395.640625 42.085938 392.625 47.527344 Z M 392.625 47.527344 " fill-opacity="1" fill-rule="nonzero"/><path fill="#a7c957" d="M 413.554688 80.730469 C 396.527344 96.058594 392.355469 70.480469 391.632812 64.507812 C 392.425781 64.261719 393.167969 63.917969 393.863281 63.46875 C 394.558594 63.019531 395.183594 62.488281 395.734375 61.871094 C 396.285156 61.25 396.742188 60.570312 397.105469 59.828125 C 397.472656 59.085938 397.730469 58.304688 397.882812 57.492188 C 402.019531 58.289062 431.417969 64.640625 413.554688 80.730469 Z M 413.554688 80.730469 " fill-opacity="1" fill-rule="nonzero"/><path fill="#a7c957" d="M 398.003906 56.554688 C 398.015625 56.386719 398.023438 56.214844 398.027344 56.042969 C 398.046875 55.238281 397.960938 54.445312 397.769531 53.664062 C 397.578125 52.878906 397.289062 52.136719 396.898438 51.433594 C 396.507812 50.726562 396.03125 50.085938 395.472656 49.507812 C 394.910156 48.929688 394.28125 48.4375 393.589844 48.027344 C 396.320312 43.371094 411.316406 19.558594 420.464844 41.097656 C 429.421875 62.175781 403.898438 57.816406 398.003906 56.554688 Z M 398.003906 56.554688 " fill-opacity="1" fill-rule="nonzero"/><path fill="#6a994e" d="M 398.027344 56.042969 C 398.027344 56.214844 398.015625 56.386719 398.003906 56.554688 C 397.976562 56.871094 397.9375 57.179688 397.878906 57.492188 C 397.726562 58.304688 397.46875 59.082031 397.105469 59.828125 C 396.742188 60.570312 396.28125 61.25 395.734375 61.867188 C 395.183594 62.488281 394.558594 63.019531 393.863281 63.46875 C 393.167969 63.917969 392.425781 64.261719 391.632812 64.507812 C 391.230469 64.632812 390.820312 64.730469 390.402344 64.792969 C 389.515625 64.9375 388.628906 64.949219 387.738281 64.828125 C 386.847656 64.707031 385.996094 64.460938 385.179688 64.085938 C 384.363281 63.714844 383.617188 63.230469 382.945312 62.636719 C 382.269531 62.042969 381.699219 61.363281 381.226562 60.601562 C 381.035156 60.292969 380.863281 59.972656 380.714844 59.644531 C 380.335938 58.832031 380.085938 57.980469 379.964844 57.089844 C 379.839844 56.203125 379.847656 55.316406 379.984375 54.429688 C 380.125 53.542969 380.390625 52.695312 380.78125 51.886719 C 381.171875 51.078125 381.667969 50.34375 382.277344 49.683594 C 382.472656 49.472656 382.675781 49.269531 382.890625 49.082031 C 383.542969 48.496094 384.261719 48.015625 385.050781 47.640625 C 385.84375 47.261719 386.667969 47.003906 387.535156 46.867188 C 388.398438 46.730469 389.265625 46.71875 390.132812 46.832031 C 391 46.945312 391.832031 47.175781 392.632812 47.53125 C 392.964844 47.675781 393.285156 47.84375 393.597656 48.03125 C 394.289062 48.441406 394.914062 48.9375 395.476562 49.511719 C 396.035156 50.089844 396.511719 50.730469 396.898438 51.4375 C 397.289062 52.140625 397.578125 52.882812 397.769531 53.664062 C 397.960938 54.445312 398.046875 55.238281 398.027344 56.042969 Z M 398.027344 56.042969 " fill-opacity="1" fill-rule="nonzero"/><path fill="#eda2f2" d="M 892.691406 137.753906 C 886.292969 141.257812 864.277344 151.820312 866.886719 129.871094 C 869.632812 106.785156 890.179688 124.105469 894.253906 127.792969 C 893.648438 128.453125 893.148438 129.183594 892.757812 129.992188 C 892.367188 130.800781 892.101562 131.648438 891.964844 132.535156 C 891.824219 133.421875 891.816406 134.308594 891.941406 135.195312 C 892.0625 136.085938 892.316406 136.9375 892.691406 137.753906 Z M 892.691406 137.753906 " fill-opacity="1" fill-rule="nonzero"/><path fill="#eda2f2" d="M 885.625 164.628906 C 865.882812 153.953125 887.269531 141.726562 893.203125 138.707031 C 893.675781 139.472656 894.25 140.152344 894.921875 140.746094 C 895.59375 141.339844 896.339844 141.824219 897.15625 142.195312 C 897.972656 142.570312 898.824219 142.816406 899.714844 142.9375 C 900.605469 143.058594 901.492188 143.046875 902.378906 142.902344 C 903.226562 149.207031 905.683594 175.480469 885.625 164.628906 Z M 885.625 164.628906 " fill-opacity="1" fill-rule="nonzero"/><path fill="#eda2f2" d="M 904.605469 125.640625 C 903.804688 125.285156 902.972656 125.054688 902.105469 124.941406 C 901.234375 124.828125 900.371094 124.839844 899.503906 124.976562 C 898.640625 125.113281 897.816406 125.371094 897.023438 125.746094 C 896.234375 126.125 895.515625 126.605469 894.863281 127.1875 C 890.742188 122.628906 873.558594 102.09375 896.375 99.722656 C 919.019531 97.367188 907.621094 120.199219 904.605469 125.640625 Z M 904.605469 125.640625 " fill-opacity="1" fill-rule="nonzero"/><path fill="#eda2f2" d="M 925.535156 158.84375 C 908.507812 174.171875 904.335938 148.59375 903.613281 142.621094 C 904.40625 142.375 905.148438 142.03125 905.84375 141.582031 C 906.539062 141.132812 907.164062 140.601562 907.714844 139.984375 C 908.265625 139.363281 908.722656 138.683594 909.085938 137.941406 C 909.453125 137.195312 909.710938 136.417969 909.863281 135.605469 C 914 136.402344 943.398438 142.753906 925.535156 158.84375 Z M 925.535156 158.84375 " fill-opacity="1" fill-rule="nonzero"/><path fill="#eda2f2" d="M 909.984375 134.667969 C 909.996094 134.5 910.003906 134.328125 910.007812 134.15625 C 910.027344 133.351562 909.941406 132.558594 909.75 131.777344 C 909.558594 130.992188 909.265625 130.25 908.878906 129.546875 C 908.488281 128.839844 908.011719 128.199219 907.449219 127.621094 C 906.890625 127.042969 906.261719 126.550781 905.570312 126.140625 C 908.300781 121.484375 923.296875 97.671875 932.445312 119.210938 C 941.398438 140.289062 915.878906 135.929688 909.984375 134.667969 Z M 909.984375 134.667969 " fill-opacity="1" fill-rule="nonzero"/><path fill="#fed273" d="M 910.007812 134.15625 C 910.007812 134.328125 909.996094 134.5 909.984375 134.667969 C 909.957031 134.980469 909.917969 135.292969 909.859375 135.605469 C 909.707031 136.417969 909.449219 137.195312 909.085938 137.941406 C 908.71875 138.683594 908.261719 139.363281 907.714844 139.980469 C 907.164062 140.601562 906.539062 141.132812 905.84375 141.582031 C 905.148438 142.03125 904.40625 142.375 903.613281 142.621094 C 903.210938 142.746094 902.800781 142.84375 902.382812 142.90625 C 901.496094 143.050781 900.609375 143.0625 899.71875 142.941406 C 898.828125 142.820312 897.976562 142.574219 897.160156 142.199219 C 896.34375 141.828125 895.597656 141.34375 894.925781 140.75 C 894.25 140.15625 893.679688 139.476562 893.207031 138.710938 C 893.015625 138.40625 892.84375 138.085938 892.695312 137.757812 C 892.316406 136.945312 892.066406 136.09375 891.941406 135.203125 C 891.820312 134.316406 891.828125 133.429688 891.964844 132.542969 C 892.105469 131.65625 892.371094 130.808594 892.761719 130 C 893.152344 129.191406 893.648438 128.457031 894.257812 127.796875 C 894.453125 127.585938 894.65625 127.382812 894.871094 127.191406 C 895.523438 126.609375 896.242188 126.128906 897.03125 125.75 C 897.824219 125.375 898.648438 125.117188 899.515625 124.980469 C 900.378906 124.84375 901.242188 124.832031 902.113281 124.945312 C 902.980469 125.058594 903.8125 125.289062 904.613281 125.644531 C 904.945312 125.789062 905.265625 125.957031 905.578125 126.144531 C 906.269531 126.554688 906.894531 127.046875 907.457031 127.625 C 908.015625 128.203125 908.492188 128.84375 908.878906 129.550781 C 909.269531 130.253906 909.558594 130.996094 909.75 131.777344 C 909.941406 132.558594 910.027344 133.351562 910.007812 134.15625 Z M 910.007812 134.15625 " fill-opacity="1" fill-rule="nonzero"/><path fill="#f78e69" d="M 551.351562 121.691406 C 544.957031 125.195312 522.9375 135.757812 525.546875 113.808594 C 528.292969 90.722656 548.84375 108.042969 552.917969 111.730469 C 552.308594 112.390625 551.8125 113.125 551.421875 113.929688 C 551.03125 114.738281 550.765625 115.585938 550.625 116.472656 C 550.488281 117.359375 550.480469 118.246094 550.601562 119.136719 C 550.726562 120.023438 550.976562 120.875 551.351562 121.691406 Z M 551.351562 121.691406 " fill-opacity="1" fill-rule="nonzero"/><path fill="#f78e69" d="M 544.289062 148.566406 C 524.546875 137.890625 545.933594 125.664062 551.867188 122.648438 C 552.339844 123.410156 552.910156 124.089844 553.585938 124.683594 C 554.257812 125.277344 555.003906 125.761719 555.820312 126.132812 C 556.636719 126.507812 557.488281 126.753906 558.378906 126.875 C 559.269531 126.996094 560.15625 126.984375 561.042969 126.84375 C 561.890625 133.144531 564.347656 159.417969 544.289062 148.566406 Z M 544.289062 148.566406 " fill-opacity="1" fill-rule="nonzero"/><path fill="#f78e69" d="M 563.269531 109.578125 C 562.46875 109.222656 561.632812 108.992188 560.765625 108.878906 C 559.898438 108.765625 559.03125 108.777344 558.167969 108.914062 C 557.304688 109.054688 556.476562 109.308594 555.6875 109.6875 C 554.898438 110.0625 554.175781 110.542969 553.523438 111.128906 C 549.40625 106.570312 532.21875 86.035156 555.035156 83.660156 C 577.679688 81.304688 566.285156 104.136719 563.269531 109.578125 Z M 563.269531 109.578125 " fill-opacity="1" fill-rule="nonzero"/><path fill="#f78e69" d="M 584.199219 142.78125 C 567.171875 158.113281 563 132.53125 562.277344 126.558594 C 563.066406 126.316406 563.8125 125.96875 564.507812 125.519531 C 565.203125 125.074219 565.828125 124.539062 566.378906 123.921875 C 566.925781 123.304688 567.386719 122.621094 567.75 121.878906 C 568.113281 121.136719 568.371094 120.355469 568.523438 119.542969 C 572.660156 120.339844 602.058594 126.691406 584.199219 142.78125 Z M 584.199219 142.78125 " fill-opacity="1" fill-rule="nonzero"/><path fill="#f78e69" d="M 568.644531 118.605469 C 568.660156 118.4375 568.667969 118.265625 568.671875 118.09375 C 568.691406 117.289062 568.605469 116.496094 568.414062 115.714844 C 568.222656 114.933594 567.929688 114.1875 567.539062 113.484375 C 567.148438 112.78125 566.675781 112.136719 566.113281 111.5625 C 565.550781 110.984375 564.925781 110.488281 564.234375 110.078125 C 566.960938 105.421875 581.960938 81.609375 591.105469 103.148438 C 600.0625 124.226562 574.539062 119.867188 568.644531 118.605469 Z M 568.644531 118.605469 " fill-opacity="1" fill-rule="nonzero"/><path fill="#fed273" d="M 568.671875 118.09375 C 568.671875 118.265625 568.660156 118.4375 568.644531 118.605469 C 568.621094 118.921875 568.578125 119.234375 568.519531 119.542969 C 568.371094 120.355469 568.113281 121.136719 567.746094 121.878906 C 567.382812 122.621094 566.925781 123.300781 566.375 123.921875 C 565.824219 124.539062 565.203125 125.070312 564.507812 125.519531 C 563.808594 125.96875 563.066406 126.3125 562.277344 126.558594 C 561.871094 126.683594 561.460938 126.78125 561.046875 126.847656 C 560.160156 126.988281 559.269531 127 558.382812 126.878906 C 557.492188 126.757812 556.636719 126.511719 555.820312 126.136719 C 555.003906 125.765625 554.261719 125.28125 553.585938 124.6875 C 552.914062 124.09375 552.339844 123.414062 551.867188 122.652344 C 551.679688 122.34375 551.507812 122.027344 551.355469 121.699219 C 550.980469 120.882812 550.730469 120.03125 550.605469 119.140625 C 550.480469 118.253906 550.488281 117.367188 550.628906 116.480469 C 550.769531 115.59375 551.03125 114.746094 551.421875 113.9375 C 551.8125 113.128906 552.3125 112.394531 552.921875 111.738281 C 553.117188 111.527344 553.320312 111.324219 553.535156 111.132812 C 554.183594 110.546875 554.90625 110.066406 555.695312 109.691406 C 556.484375 109.3125 557.3125 109.058594 558.175781 108.917969 C 559.039062 108.78125 559.90625 108.769531 560.773438 108.882812 C 561.640625 108.996094 562.476562 109.230469 563.277344 109.582031 C 563.609375 109.730469 563.929688 109.894531 564.242188 110.082031 C 564.933594 110.492188 565.558594 110.988281 566.117188 111.566406 C 566.679688 112.144531 567.152344 112.785156 567.542969 113.488281 C 567.933594 114.191406 568.222656 114.933594 568.414062 115.714844 C 568.605469 116.496094 568.691406 117.289062 568.671875 118.09375 Z M 568.671875 118.09375 " fill-opacity="1" fill-rule="nonzero"/><path fill="#a7c957" d="M 1063.640625 59.640625 C 1057.242188 63.144531 1035.226562 73.707031 1037.835938 51.757812 C 1040.582031 28.671875 1061.128906 45.992188 1065.203125 49.679688 C 1064.597656 50.339844 1064.097656 51.070312 1063.707031 51.878906 C 1063.316406 52.6875 1063.050781 53.535156 1062.914062 54.421875 C 1062.773438 55.308594 1062.765625 56.195312 1062.890625 57.085938 C 1063.015625 57.972656 1063.265625 58.824219 1063.640625 59.640625 Z M 1063.640625 59.640625 " fill-opacity="1" fill-rule="nonzero"/><path fill="#a7c957" d="M 1056.574219 86.515625 C 1036.832031 75.839844 1058.21875 63.613281 1064.152344 60.597656 C 1064.625 61.359375 1065.199219 62.039062 1065.871094 62.632812 C 1066.542969 63.226562 1067.289062 63.710938 1068.105469 64.082031 C 1068.921875 64.457031 1069.777344 64.703125 1070.664062 64.824219 C 1071.554688 64.945312 1072.441406 64.933594 1073.328125 64.789062 C 1074.175781 71.09375 1076.632812 97.367188 1056.574219 86.515625 Z M 1056.574219 86.515625 " fill-opacity="1" fill-rule="nonzero"/><path fill="#a7c957" d="M 1075.554688 47.527344 C 1074.753906 47.171875 1073.921875 46.941406 1073.054688 46.828125 C 1072.183594 46.714844 1071.320312 46.726562 1070.453125 46.863281 C 1069.589844 47 1068.765625 47.257812 1067.972656 47.636719 C 1067.183594 48.011719 1066.464844 48.492188 1065.8125 49.078125 C 1061.691406 44.515625 1044.507812 23.984375 1067.324219 21.609375 C 1089.96875 19.253906 1078.570312 42.085938 1075.554688 47.527344 Z M 1075.554688 47.527344 " fill-opacity="1" fill-rule="nonzero"/><path fill="#a7c957" d="M 1096.484375 80.730469 C 1079.457031 96.058594 1075.285156 70.480469 1074.5625 64.507812 C 1075.355469 64.261719 1076.097656 63.917969 1076.792969 63.46875 C 1077.488281 63.019531 1078.113281 62.488281 1078.664062 61.871094 C 1079.214844 61.25 1079.671875 60.570312 1080.035156 59.828125 C 1080.402344 59.085938 1080.660156 58.304688 1080.8125 57.492188 C 1084.949219 58.289062 1114.347656 64.640625 1096.484375 80.730469 Z M 1096.484375 80.730469 " fill-opacity="1" fill-rule="nonzero"/><path fill="#a7c957" d="M 1080.933594 56.554688 C 1080.945312 56.386719 1080.953125 56.214844 1080.957031 56.042969 C 1080.976562 55.238281 1080.890625 54.445312 1080.699219 53.664062 C 1080.507812 52.878906 1080.214844 52.136719 1079.828125 51.433594 C 1079.4375 50.726562 1078.960938 50.085938 1078.398438 49.507812 C 1077.839844 48.929688 1077.210938 48.4375 1076.519531 48.027344 C 1079.25 43.371094 1094.246094 19.558594 1103.394531 41.097656 C 1112.347656 62.175781 1086.828125 57.816406 1080.933594 56.554688 Z M 1080.933594 56.554688 " fill-opacity="1" fill-rule="nonzero"/><path fill="#f78e69" d="M 1080.957031 56.042969 C 1080.957031 56.214844 1080.945312 56.386719 1080.933594 56.554688 C 1080.90625 56.871094 1080.867188 57.179688 1080.808594 57.492188 C 1080.65625 58.304688 1080.398438 59.082031 1080.035156 59.828125 C 1079.671875 60.570312 1079.210938 61.25 1078.664062 61.867188 C 1078.113281 62.488281 1077.488281 63.019531 1076.792969 63.46875 C 1076.097656 63.917969 1075.355469 64.261719 1074.5625 64.507812 C 1074.160156 64.632812 1073.75 64.730469 1073.332031 64.792969 C 1072.445312 64.9375 1071.558594 64.949219 1070.667969 64.828125 C 1069.777344 64.707031 1068.925781 64.460938 1068.109375 64.085938 C 1067.292969 63.714844 1066.546875 63.230469 1065.875 62.636719 C 1065.199219 62.042969 1064.628906 61.363281 1064.15625 60.601562 C 1063.964844 60.292969 1063.792969 59.972656 1063.644531 59.644531 C 1063.265625 58.832031 1063.015625 57.980469 1062.890625 57.089844 C 1062.769531 56.203125 1062.777344 55.316406 1062.914062 54.429688 C 1063.054688 53.542969 1063.320312 52.695312 1063.710938 51.886719 C 1064.101562 51.078125 1064.597656 50.34375 1065.207031 49.683594 C 1065.402344 49.472656 1065.605469 49.269531 1065.820312 49.082031 C 1066.472656 48.496094 1067.191406 48.015625 1067.980469 47.640625 C 1068.773438 47.261719 1069.597656 47.003906 1070.464844 46.867188 C 1071.328125 46.730469 1072.191406 46.71875 1073.0625 46.832031 C 1073.929688 46.945312 1074.761719 47.175781 1075.5625 47.53125 C 1075.894531 47.675781 1076.214844 47.84375 1076.527344 48.03125 C 1077.21875 48.441406 1077.84375 48.9375 1078.40625 49.511719 C 1078.964844 50.089844 1079.441406 50.730469 1079.828125 51.4375 C 1080.21875 52.140625 1080.507812 52.882812 1080.699219 53.664062 C 1080.890625 54.445312 1080.976562 55.238281 1080.957031 56.042969 Z M 1080.957031 56.042969 " fill-opacity="1" fill-rule="nonzero"/><path fill="#fed273" d="M 722.023438 59.640625 C 715.625 63.144531 693.609375 73.707031 696.21875 51.757812 C 698.960938 28.671875 719.511719 45.992188 723.585938 49.679688 C 722.980469 50.339844 722.480469 51.070312 722.089844 51.878906 C 721.699219 52.6875 721.433594 53.535156 721.292969 54.421875 C 721.15625 55.308594 721.148438 56.195312 721.273438 57.085938 C 721.394531 57.972656 721.644531 58.824219 722.023438 59.640625 Z M 722.023438 59.640625 " fill-opacity="1" fill-rule="nonzero"/><path fill="#fed273" d="M 714.957031 86.515625 C 695.214844 75.839844 716.601562 63.613281 722.535156 60.597656 C 723.007812 61.359375 723.578125 62.039062 724.253906 62.632812 C 724.925781 63.226562 725.671875 63.710938 726.488281 64.082031 C 727.304688 64.457031 728.15625 64.703125 729.046875 64.824219 C 729.9375 64.945312 730.824219 64.933594 731.710938 64.789062 C 732.558594 71.09375 735.015625 97.367188 714.957031 86.515625 Z M 714.957031 86.515625 " fill-opacity="1" fill-rule="nonzero"/><path fill="#fed273" d="M 733.9375 47.527344 C 733.136719 47.171875 732.300781 46.941406 731.433594 46.828125 C 730.566406 46.714844 729.703125 46.726562 728.835938 46.863281 C 727.972656 47 727.144531 47.257812 726.355469 47.636719 C 725.566406 48.011719 724.84375 48.492188 724.195312 49.078125 C 720.074219 44.515625 702.886719 23.984375 725.707031 21.609375 C 748.351562 19.253906 736.953125 42.085938 733.9375 47.527344 Z M 733.9375 47.527344 " fill-opacity="1" fill-rule="nonzero"/><path fill="#fed273" d="M 754.867188 80.730469 C 737.839844 96.058594 733.667969 70.480469 732.945312 64.507812 C 733.734375 64.261719 734.480469 63.917969 735.175781 63.46875 C 735.871094 63.019531 736.496094 62.488281 737.046875 61.871094 C 737.597656 61.25 738.054688 60.570312 738.417969 59.828125 C 738.78125 59.085938 739.042969 58.304688 739.191406 57.492188 C 743.332031 58.289062 772.730469 64.640625 754.867188 80.730469 Z M 754.867188 80.730469 " fill-opacity="1" fill-rule="nonzero"/><path fill="#fed273" d="M 739.316406 56.554688 C 739.328125 56.386719 739.335938 56.214844 739.339844 56.042969 C 739.359375 55.238281 739.273438 54.445312 739.082031 53.664062 C 738.890625 52.878906 738.597656 52.136719 738.207031 51.433594 C 737.820312 50.726562 737.34375 50.085938 736.78125 49.507812 C 736.222656 48.929688 735.59375 48.4375 734.902344 48.027344 C 737.632812 43.371094 752.628906 19.558594 761.777344 41.097656 C 770.730469 62.175781 745.210938 57.816406 739.316406 56.554688 Z M 739.316406 56.554688 " fill-opacity="1" fill-rule="nonzero"/><path fill="#6a994e" d="M 739.339844 56.042969 C 739.339844 56.214844 739.328125 56.386719 739.316406 56.554688 C 739.289062 56.871094 739.246094 57.179688 739.191406 57.492188 C 739.039062 58.304688 738.78125 59.082031 738.417969 59.828125 C 738.050781 60.570312 737.59375 61.25 737.042969 61.867188 C 736.492188 62.488281 735.871094 63.019531 735.175781 63.46875 C 734.480469 63.917969 733.734375 64.261719 732.945312 64.507812 C 732.542969 64.632812 732.132812 64.730469 731.714844 64.792969 C 730.828125 64.9375 729.9375 64.949219 729.050781 64.828125 C 728.160156 64.707031 727.308594 64.460938 726.492188 64.085938 C 725.675781 63.714844 724.929688 63.230469 724.257812 62.636719 C 723.582031 62.042969 723.011719 61.363281 722.539062 60.601562 C 722.347656 60.292969 722.175781 59.972656 722.023438 59.644531 C 721.648438 58.832031 721.398438 57.980469 721.273438 57.089844 C 721.152344 56.203125 721.160156 55.316406 721.296875 54.429688 C 721.4375 53.542969 721.703125 52.695312 722.089844 51.886719 C 722.480469 51.078125 722.980469 50.34375 723.589844 49.683594 C 723.785156 49.472656 723.988281 49.269531 724.203125 49.082031 C 724.851562 48.496094 725.574219 48.015625 726.363281 47.640625 C 727.152344 47.261719 727.980469 47.003906 728.84375 46.867188 C 729.710938 46.730469 730.574219 46.71875 731.441406 46.832031 C 732.3125 46.945312 733.144531 47.175781 733.945312 47.53125 C 734.277344 47.675781 734.597656 47.84375 734.910156 48.03125 C 735.601562 48.441406 736.226562 48.9375 736.789062 49.511719 C 737.347656 50.089844 737.820312 50.730469 738.210938 51.4375 C 738.601562 52.140625 738.890625 52.882812 739.082031 53.664062 C 739.273438 54.445312 739.359375 55.238281 739.339844 56.042969 Z M 739.339844 56.042969 " fill-opacity="1" fill-rule="nonzero"/><path fill="#eda2f2" d="M 1085.777344 796.871094 C 1092.175781 793.371094 1114.191406 782.808594 1111.585938 804.757812 C 1108.839844 827.839844 1088.289062 810.523438 1084.214844 806.835938 C 1084.824219 806.175781 1085.320312 805.441406 1085.710938 804.632812 C 1086.101562 803.824219 1086.367188 802.980469 1086.507812 802.09375 C 1086.644531 801.207031 1086.652344 800.316406 1086.53125 799.429688 C 1086.40625 798.539062 1086.15625 797.6875 1085.777344 796.875 Z M 1085.777344 796.871094 " fill-opacity="1" fill-rule="nonzero"/><path fill="#eda2f2" d="M 1092.84375 769.996094 C 1112.585938 780.675781 1091.199219 792.902344 1085.265625 795.917969 C 1084.792969 795.15625 1084.222656 794.476562 1083.546875 793.882812 C 1082.875 793.289062 1082.128906 792.804688 1081.3125 792.429688 C 1080.496094 792.058594 1079.644531 791.8125 1078.753906 791.691406 C 1077.863281 791.570312 1076.976562 791.582031 1076.089844 791.722656 C 1075.242188 785.421875 1072.785156 759.148438 1092.84375 769.996094 Z M 1092.84375 769.996094 " fill-opacity="1" fill-rule="nonzero"/><path fill="#eda2f2" d="M 1073.863281 808.988281 C 1074.664062 809.339844 1075.5 809.574219 1076.367188 809.6875 C 1077.234375 809.800781 1078.101562 809.789062 1078.964844 809.648438 C 1079.828125 809.511719 1080.65625 809.253906 1081.445312 808.878906 C 1082.234375 808.503906 1082.957031 808.023438 1083.605469 807.4375 C 1087.726562 811.996094 1104.914062 832.53125 1082.097656 834.90625 C 1059.453125 837.261719 1070.847656 814.425781 1073.863281 808.988281 Z M 1073.863281 808.988281 " fill-opacity="1" fill-rule="nonzero"/><path fill="#eda2f2" d="M 1052.933594 775.785156 C 1069.960938 760.453125 1074.132812 786.035156 1074.855469 792.007812 C 1074.066406 792.25 1073.320312 792.597656 1072.625 793.042969 C 1071.929688 793.492188 1071.304688 794.027344 1070.753906 794.644531 C 1070.203125 795.261719 1069.746094 795.941406 1069.382812 796.6875 C 1069.019531 797.429688 1068.761719 798.207031 1068.609375 799.023438 C 1064.46875 798.222656 1035.074219 791.875 1052.933594 775.785156 Z M 1052.933594 775.785156 " fill-opacity="1" fill-rule="nonzero"/><path fill="#eda2f2" d="M 1068.488281 799.957031 C 1068.472656 800.128906 1068.464844 800.296875 1068.460938 800.46875 C 1068.441406 801.273438 1068.527344 802.070312 1068.71875 802.851562 C 1068.910156 803.632812 1069.203125 804.375 1069.59375 805.082031 C 1069.984375 805.785156 1070.457031 806.425781 1071.019531 807.003906 C 1071.582031 807.582031 1072.207031 808.078125 1072.898438 808.488281 C 1070.171875 813.144531 1055.171875 836.957031 1046.023438 815.417969 C 1037.070312 794.335938 1062.59375 798.699219 1068.488281 799.957031 Z M 1068.488281 799.957031 " fill-opacity="1" fill-rule="nonzero"/><path fill="#f78e69" d="M 1068.460938 800.46875 C 1068.460938 800.296875 1068.472656 800.128906 1068.488281 799.957031 C 1068.511719 799.644531 1068.554688 799.332031 1068.613281 799.023438 C 1068.761719 798.207031 1069.019531 797.429688 1069.386719 796.6875 C 1069.75 795.945312 1070.207031 795.261719 1070.757812 794.644531 C 1071.308594 794.027344 1071.929688 793.492188 1072.625 793.046875 C 1073.324219 792.597656 1074.066406 792.25 1074.855469 792.007812 C 1075.261719 791.878906 1075.671875 791.785156 1076.085938 791.71875 C 1076.972656 791.578125 1077.863281 791.566406 1078.75 791.6875 C 1079.640625 791.808594 1080.496094 792.054688 1081.3125 792.425781 C 1082.128906 792.800781 1082.871094 793.285156 1083.546875 793.878906 C 1084.21875 794.472656 1084.792969 795.152344 1085.261719 795.914062 C 1085.453125 796.222656 1085.625 796.539062 1085.777344 796.867188 C 1086.152344 797.683594 1086.402344 798.535156 1086.527344 799.421875 C 1086.652344 800.3125 1086.644531 801.199219 1086.503906 802.085938 C 1086.363281 802.972656 1086.101562 803.820312 1085.710938 804.625 C 1085.320312 805.433594 1084.820312 806.167969 1084.210938 806.828125 C 1084.015625 807.039062 1083.8125 807.242188 1083.597656 807.433594 C 1082.949219 808.019531 1082.226562 808.5 1081.4375 808.875 C 1080.648438 809.25 1079.820312 809.507812 1078.957031 809.644531 C 1078.09375 809.78125 1077.226562 809.796875 1076.359375 809.683594 C 1075.492188 809.570312 1074.65625 809.335938 1073.855469 808.984375 C 1073.523438 808.835938 1073.203125 808.667969 1072.890625 808.484375 C 1072.199219 808.074219 1071.574219 807.578125 1071.015625 807 C 1070.453125 806.421875 1069.980469 805.78125 1069.589844 805.078125 C 1069.199219 804.375 1068.910156 803.628906 1068.71875 802.847656 C 1068.527344 802.066406 1068.441406 801.273438 1068.460938 800.46875 Z M 1068.460938 800.46875 " fill-opacity="1" fill-rule="nonzero"/><path fill="#fed273" d="M 915.109375 731.773438 C 921.507812 728.273438 943.523438 717.710938 940.914062 739.660156 C 938.171875 762.746094 917.621094 745.425781 913.546875 741.738281 C 914.152344 741.078125 914.652344 740.34375 915.042969 739.535156 C 915.433594 738.730469 915.699219 737.882812 915.839844 736.996094 C 915.976562 736.109375 915.984375 735.222656 915.859375 734.332031 C 915.738281 733.445312 915.488281 732.59375 915.109375 731.777344 Z M 915.109375 731.773438 " fill-opacity="1" fill-rule="nonzero"/><path fill="#fed273" d="M 922.175781 704.902344 C 941.917969 715.578125 920.53125 727.804688 914.597656 730.820312 C 914.125 730.058594 913.550781 729.378906 912.878906 728.785156 C 912.207031 728.191406 911.460938 727.707031 910.644531 727.335938 C 909.828125 726.960938 908.976562 726.714844 908.085938 726.59375 C 907.195312 726.472656 906.308594 726.484375 905.421875 726.625 C 904.574219 720.324219 902.117188 694.050781 922.175781 704.902344 Z M 922.175781 704.902344 " fill-opacity="1" fill-rule="nonzero"/><path fill="#fed273" d="M 903.195312 743.890625 C 903.996094 744.242188 904.828125 744.476562 905.699219 744.589844 C 906.566406 744.703125 907.429688 744.691406 908.296875 744.554688 C 909.160156 744.414062 909.988281 744.160156 910.777344 743.78125 C 911.566406 743.40625 912.289062 742.925781 912.9375 742.339844 C 917.058594 746.898438 934.246094 767.433594 911.425781 769.808594 C 888.78125 772.164062 900.179688 749.332031 903.195312 743.890625 Z M 903.195312 743.890625 " fill-opacity="1" fill-rule="nonzero"/><path fill="#fed273" d="M 882.265625 710.6875 C 899.292969 695.355469 903.464844 720.9375 904.1875 726.910156 C 903.398438 727.152344 902.652344 727.5 901.957031 727.949219 C 901.261719 728.394531 900.636719 728.929688 900.085938 729.546875 C 899.535156 730.164062 899.078125 730.847656 898.714844 731.589844 C 898.351562 732.332031 898.089844 733.113281 897.941406 733.925781 C 893.800781 733.128906 864.402344 726.777344 882.265625 710.6875 Z M 882.265625 710.6875 " fill-opacity="1" fill-rule="nonzero"/><path fill="#fed273" d="M 897.816406 734.863281 C 897.804688 735.03125 897.796875 735.203125 897.792969 735.375 C 897.773438 736.179688 897.859375 736.972656 898.050781 737.753906 C 898.242188 738.535156 898.535156 739.28125 898.925781 739.984375 C 899.3125 740.6875 899.789062 741.332031 900.351562 741.90625 C 900.910156 742.484375 901.539062 742.980469 902.230469 743.390625 C 899.5 748.046875 884.503906 771.859375 875.355469 750.320312 C 866.402344 729.242188 891.921875 733.601562 897.816406 734.863281 Z M 897.816406 734.863281 " fill-opacity="1" fill-rule="nonzero"/><path fill="#a7c957" d="M 897.792969 735.375 C 897.792969 735.203125 897.804688 735.03125 897.816406 734.863281 C 897.84375 734.546875 897.886719 734.234375 897.941406 733.925781 C 898.09375 733.113281 898.351562 732.332031 898.714844 731.589844 C 899.082031 730.847656 899.539062 730.167969 900.089844 729.546875 C 900.636719 728.929688 901.261719 728.398438 901.957031 727.949219 C 902.652344 727.5 903.398438 727.152344 904.1875 726.910156 C 904.589844 726.785156 905 726.6875 905.417969 726.621094 C 906.304688 726.480469 907.191406 726.46875 908.082031 726.589844 C 908.972656 726.710938 909.824219 726.957031 910.640625 727.332031 C 911.457031 727.703125 912.203125 728.1875 912.875 728.78125 C 913.550781 729.375 914.121094 730.054688 914.59375 730.816406 C 914.785156 731.125 914.957031 731.441406 915.109375 731.769531 C 915.484375 732.585938 915.734375 733.4375 915.859375 734.324219 C 915.980469 735.214844 915.972656 736.101562 915.835938 736.988281 C 915.695312 737.875 915.429688 738.722656 915.039062 739.53125 C 914.652344 740.339844 914.152344 741.070312 913.542969 741.730469 C 913.347656 741.941406 913.144531 742.144531 912.929688 742.335938 C 912.277344 742.921875 911.558594 743.402344 910.769531 743.777344 C 909.980469 744.15625 909.152344 744.410156 908.289062 744.550781 C 907.421875 744.6875 906.558594 744.699219 905.691406 744.585938 C 904.820312 744.472656 903.988281 744.238281 903.1875 743.886719 C 902.855469 743.738281 902.535156 743.574219 902.222656 743.386719 C 901.53125 742.976562 900.90625 742.480469 900.34375 741.902344 C 899.785156 741.324219 899.3125 740.683594 898.921875 739.980469 C 898.53125 739.277344 898.242188 738.535156 898.050781 737.753906 C 897.859375 736.972656 897.773438 736.179688 897.792969 735.375 Z M 897.792969 735.375 " fill-opacity="1" fill-rule="nonzero"/><path fill="#a7c957" d="M 744.441406 796.871094 C 750.839844 793.371094 772.855469 782.808594 770.246094 804.757812 C 767.5 827.839844 746.953125 810.523438 742.878906 806.835938 C 743.484375 806.175781 743.984375 805.441406 744.375 804.632812 C 744.765625 803.824219 745.03125 802.980469 745.167969 802.09375 C 745.308594 801.207031 745.316406 800.316406 745.191406 799.429688 C 745.066406 798.539062 744.816406 797.6875 744.441406 796.875 Z M 744.441406 796.871094 " fill-opacity="1" fill-rule="nonzero"/><path fill="#a7c957" d="M 751.507812 769.996094 C 771.25 780.675781 749.863281 792.902344 743.929688 795.917969 C 743.457031 795.15625 742.882812 794.476562 742.210938 793.882812 C 741.539062 793.289062 740.792969 792.804688 739.976562 792.429688 C 739.160156 792.058594 738.304688 791.8125 737.417969 791.691406 C 736.527344 791.570312 735.640625 791.582031 734.753906 791.722656 C 733.90625 785.421875 731.449219 759.148438 751.507812 769.996094 Z M 751.507812 769.996094 " fill-opacity="1" fill-rule="nonzero"/><path fill="#a7c957" d="M 732.527344 808.988281 C 733.328125 809.339844 734.160156 809.574219 735.027344 809.6875 C 735.898438 809.800781 736.761719 809.789062 737.628906 809.648438 C 738.492188 809.511719 739.316406 809.253906 740.109375 808.878906 C 740.898438 808.503906 741.617188 808.023438 742.269531 807.4375 C 746.390625 811.996094 763.574219 832.53125 740.757812 834.90625 C 718.113281 837.261719 729.511719 814.425781 732.527344 808.988281 Z M 732.527344 808.988281 " fill-opacity="1" fill-rule="nonzero"/><path fill="#a7c957" d="M 711.597656 775.785156 C 728.625 760.453125 732.796875 786.035156 733.519531 792.007812 C 732.726562 792.25 731.984375 792.597656 731.289062 793.042969 C 730.59375 793.492188 729.96875 794.027344 729.417969 794.644531 C 728.867188 795.261719 728.410156 795.941406 728.046875 796.6875 C 727.679688 797.429688 727.421875 798.207031 727.269531 799.023438 C 723.132812 798.222656 693.734375 791.875 711.597656 775.785156 Z M 711.597656 775.785156 " fill-opacity="1" fill-rule="nonzero"/><path fill="#a7c957" d="M 727.148438 799.957031 C 727.136719 800.128906 727.128906 800.296875 727.125 800.46875 C 727.105469 801.273438 727.191406 802.070312 727.382812 802.851562 C 727.574219 803.632812 727.867188 804.375 728.253906 805.082031 C 728.644531 805.785156 729.121094 806.425781 729.683594 807.003906 C 730.242188 807.582031 730.871094 808.078125 731.5625 808.488281 C 728.832031 813.144531 713.835938 836.957031 704.6875 815.417969 C 695.734375 794.335938 721.253906 798.699219 727.148438 799.957031 Z M 727.148438 799.957031 " fill-opacity="1" fill-rule="nonzero"/><path fill="#6a994e" d="M 727.125 800.46875 C 727.125 800.296875 727.136719 800.128906 727.148438 799.957031 C 727.175781 799.644531 727.214844 799.332031 727.273438 799.023438 C 727.425781 798.207031 727.683594 797.429688 728.046875 796.6875 C 728.410156 795.945312 728.871094 795.261719 729.417969 794.644531 C 729.96875 794.027344 730.59375 793.492188 731.289062 793.046875 C 731.984375 792.597656 732.726562 792.25 733.519531 792.007812 C 733.921875 791.878906 734.332031 791.785156 734.75 791.71875 C 735.636719 791.578125 736.523438 791.566406 737.414062 791.6875 C 738.304688 791.808594 739.15625 792.054688 739.972656 792.425781 C 740.789062 792.800781 741.535156 793.285156 742.207031 793.878906 C 742.882812 794.472656 743.453125 795.152344 743.925781 795.914062 C 744.117188 796.222656 744.289062 796.539062 744.4375 796.867188 C 744.816406 797.683594 745.066406 798.535156 745.191406 799.421875 C 745.3125 800.3125 745.304688 801.199219 745.167969 802.085938 C 745.027344 802.972656 744.761719 803.820312 744.371094 804.625 C 743.980469 805.433594 743.484375 806.167969 742.875 806.828125 C 742.679688 807.039062 742.476562 807.242188 742.261719 807.433594 C 741.609375 808.019531 740.890625 808.5 740.101562 808.875 C 739.308594 809.25 738.484375 809.507812 737.617188 809.644531 C 736.753906 809.78125 735.890625 809.796875 735.019531 809.683594 C 734.152344 809.570312 733.320312 809.335938 732.519531 808.984375 C 732.1875 808.835938 731.867188 808.667969 731.554688 808.484375 C 730.863281 808.074219 730.238281 807.578125 729.675781 807 C 729.117188 806.421875 728.640625 805.78125 728.253906 805.078125 C 727.863281 804.375 727.574219 803.628906 727.382812 802.847656 C 727.191406 802.066406 727.105469 801.273438 727.125 800.46875 Z M 727.125 800.46875 " fill-opacity="1" fill-rule="nonzero"/><path fill="#eda2f2" d="M 232.460938 718.757812 C 238.859375 715.257812 260.875 704.695312 258.265625 726.644531 C 255.519531 749.726562 234.972656 732.410156 230.898438 728.722656 C 231.503906 728.0625 232.003906 727.328125 232.394531 726.519531 C 232.785156 725.714844 233.050781 724.867188 233.1875 723.980469 C 233.328125 723.09375 233.335938 722.207031 233.210938 721.316406 C 233.089844 720.429688 232.839844 719.578125 232.460938 718.761719 Z M 232.460938 718.757812 " fill-opacity="1" fill-rule="nonzero"/><path fill="#eda2f2" d="M 239.527344 691.886719 C 259.269531 702.5625 237.882812 714.789062 231.949219 717.804688 C 231.476562 717.042969 230.902344 716.363281 230.230469 715.769531 C 229.558594 715.175781 228.8125 714.691406 227.996094 714.316406 C 227.179688 713.945312 226.328125 713.699219 225.4375 713.578125 C 224.546875 713.457031 223.660156 713.46875 222.773438 713.609375 C 221.925781 707.308594 219.46875 681.035156 239.527344 691.886719 Z M 239.527344 691.886719 " fill-opacity="1" fill-rule="nonzero"/><path fill="#eda2f2" d="M 220.546875 730.875 C 221.347656 731.226562 222.179688 731.460938 223.050781 731.574219 C 223.917969 731.6875 224.78125 731.675781 225.648438 731.535156 C 226.511719 731.398438 227.339844 731.144531 228.128906 730.765625 C 228.917969 730.390625 229.636719 729.910156 230.289062 729.324219 C 234.410156 733.882812 251.59375 754.417969 228.777344 756.792969 C 206.132812 759.148438 217.53125 736.3125 220.546875 730.875 Z M 220.546875 730.875 " fill-opacity="1" fill-rule="nonzero"/><path fill="#eda2f2" d="M 199.617188 697.671875 C 216.644531 682.339844 220.816406 707.921875 221.539062 713.894531 C 220.746094 714.136719 220.003906 714.484375 219.308594 714.933594 C 218.613281 715.378906 217.988281 715.914062 217.4375 716.53125 C 216.886719 717.148438 216.429688 717.832031 216.066406 718.574219 C 215.699219 719.316406 215.441406 720.09375 215.289062 720.910156 C 211.152344 720.109375 181.753906 713.761719 199.617188 697.671875 Z M 199.617188 697.671875 " fill-opacity="1" fill-rule="nonzero"/><path fill="#eda2f2" d="M 215.167969 721.847656 C 215.15625 722.015625 215.148438 722.183594 215.144531 722.355469 C 215.125 723.164062 215.210938 723.957031 215.402344 724.738281 C 215.59375 725.519531 215.886719 726.261719 216.273438 726.96875 C 216.664062 727.671875 217.140625 728.3125 217.703125 728.890625 C 218.261719 729.46875 218.890625 729.964844 219.582031 730.375 C 216.851562 735.03125 201.855469 758.84375 192.707031 737.304688 C 183.753906 716.226562 209.273438 720.585938 215.167969 721.847656 Z M 215.167969 721.847656 " fill-opacity="1" fill-rule="nonzero"/><path fill="#fed273" d="M 215.144531 722.355469 C 215.144531 722.183594 215.15625 722.015625 215.167969 721.847656 C 215.195312 721.53125 215.234375 721.21875 215.292969 720.910156 C 215.445312 720.097656 215.703125 719.316406 216.066406 718.574219 C 216.433594 717.832031 216.890625 717.148438 217.441406 716.53125 C 217.988281 715.914062 218.613281 715.378906 219.308594 714.933594 C 220.003906 714.484375 220.746094 714.136719 221.539062 713.894531 C 221.941406 713.765625 222.351562 713.671875 222.769531 713.605469 C 223.65625 713.464844 224.542969 713.453125 225.433594 713.574219 C 226.324219 713.695312 227.175781 713.941406 227.992188 714.3125 C 228.808594 714.6875 229.554688 715.171875 230.226562 715.765625 C 230.902344 716.359375 231.472656 717.039062 231.945312 717.800781 C 232.136719 718.109375 232.308594 718.425781 232.457031 718.753906 C 232.835938 719.570312 233.085938 720.421875 233.210938 721.308594 C 233.332031 722.199219 233.324219 723.085938 233.1875 723.972656 C 233.046875 724.859375 232.78125 725.707031 232.390625 726.515625 C 232 727.320312 231.503906 728.054688 230.894531 728.714844 C 230.699219 728.925781 230.496094 729.128906 230.28125 729.320312 C 229.628906 729.90625 228.910156 730.386719 228.121094 730.761719 C 227.328125 731.136719 226.503906 731.394531 225.640625 731.53125 C 224.773438 731.671875 223.910156 731.683594 223.039062 731.570312 C 222.171875 731.457031 221.339844 731.222656 220.539062 730.871094 C 220.207031 730.722656 219.886719 730.558594 219.574219 730.371094 C 218.882812 729.960938 218.257812 729.464844 217.695312 728.886719 C 217.136719 728.308594 216.660156 727.667969 216.273438 726.964844 C 215.882812 726.261719 215.59375 725.515625 215.402344 724.734375 C 215.210938 723.953125 215.125 723.160156 215.144531 722.355469 Z M 215.144531 722.355469 " fill-opacity="1" fill-rule="nonzero"/><path fill="#f78e69" d="M 573.800781 734.820312 C 580.195312 731.320312 602.214844 720.757812 599.605469 742.707031 C 596.859375 765.789062 576.308594 748.472656 572.234375 744.785156 C 572.84375 744.125 573.34375 743.390625 573.730469 742.582031 C 574.121094 741.773438 574.386719 740.925781 574.527344 740.039062 C 574.664062 739.152344 574.671875 738.265625 574.550781 737.378906 C 574.425781 736.488281 574.175781 735.636719 573.800781 734.824219 Z M 573.800781 734.820312 " fill-opacity="1" fill-rule="nonzero"/><path fill="#f78e69" d="M 580.863281 707.945312 C 600.605469 718.621094 579.21875 730.847656 573.285156 733.867188 C 572.8125 733.101562 572.242188 732.425781 571.566406 731.832031 C 570.894531 731.234375 570.148438 730.753906 569.332031 730.378906 C 568.515625 730.007812 567.664062 729.757812 566.773438 729.636719 C 565.882812 729.519531 564.996094 729.527344 564.109375 729.671875 C 563.261719 723.371094 560.804688 697.097656 580.863281 707.945312 Z M 580.863281 707.945312 " fill-opacity="1" fill-rule="nonzero"/><path fill="#f78e69" d="M 561.882812 746.933594 C 562.683594 747.289062 563.519531 747.523438 564.386719 747.636719 C 565.253906 747.746094 566.121094 747.734375 566.984375 747.597656 C 567.847656 747.460938 568.675781 747.203125 569.464844 746.828125 C 570.253906 746.449219 570.976562 745.96875 571.628906 745.386719 C 575.746094 749.945312 592.933594 770.480469 570.117188 772.851562 C 547.472656 775.207031 558.867188 752.375 561.882812 746.933594 Z M 561.882812 746.933594 " fill-opacity="1" fill-rule="nonzero"/><path fill="#f78e69" d="M 540.953125 713.730469 C 557.980469 698.402344 562.152344 723.984375 562.875 729.953125 C 562.085938 730.199219 561.339844 730.546875 560.644531 730.992188 C 559.949219 731.441406 559.324219 731.972656 558.773438 732.59375 C 558.226562 733.210938 557.765625 733.890625 557.402344 734.636719 C 557.039062 735.378906 556.78125 736.15625 556.628906 736.96875 C 552.492188 736.171875 523.09375 729.820312 540.953125 713.730469 Z M 540.953125 713.730469 " fill-opacity="1" fill-rule="nonzero"/><path fill="#f78e69" d="M 556.507812 737.90625 C 556.492188 738.074219 556.484375 738.246094 556.480469 738.417969 C 556.460938 739.222656 556.546875 740.015625 556.738281 740.800781 C 556.929688 741.582031 557.222656 742.324219 557.613281 743.03125 C 558.003906 743.734375 558.476562 744.375 559.039062 744.953125 C 559.601562 745.53125 560.226562 746.023438 560.917969 746.4375 C 558.191406 751.089844 543.191406 774.90625 534.046875 753.367188 C 525.089844 732.285156 550.613281 736.648438 556.507812 737.90625 Z M 556.507812 737.90625 " fill-opacity="1" fill-rule="nonzero"/><path fill="#fed273" d="M 556.480469 738.417969 C 556.480469 738.246094 556.492188 738.074219 556.507812 737.90625 C 556.53125 737.59375 556.574219 737.28125 556.632812 736.96875 C 556.78125 736.15625 557.039062 735.378906 557.40625 734.636719 C 557.769531 733.890625 558.226562 733.210938 558.777344 732.59375 C 559.328125 731.976562 559.949219 731.441406 560.644531 730.992188 C 561.34375 730.546875 562.085938 730.199219 562.875 729.953125 C 563.28125 729.828125 563.691406 729.734375 564.109375 729.667969 C 564.992188 729.523438 565.882812 729.515625 566.773438 729.632812 C 567.660156 729.753906 568.515625 730.003906 569.332031 730.375 C 570.148438 730.75 570.890625 731.230469 571.566406 731.824219 C 572.238281 732.421875 572.8125 733.097656 573.285156 733.863281 C 573.472656 734.167969 573.644531 734.488281 573.796875 734.816406 C 574.171875 735.632812 574.421875 736.484375 574.546875 737.371094 C 574.671875 738.261719 574.664062 739.148438 574.523438 740.035156 C 574.382812 740.921875 574.121094 741.765625 573.730469 742.574219 C 573.339844 743.382812 572.839844 744.117188 572.230469 744.777344 C 572.039062 744.988281 571.832031 745.191406 571.617188 745.382812 C 570.96875 745.964844 570.246094 746.445312 569.457031 746.824219 C 568.667969 747.199219 567.839844 747.457031 566.976562 747.59375 C 566.113281 747.730469 565.246094 747.742188 564.378906 747.632812 C 563.511719 747.519531 562.675781 747.285156 561.875 746.929688 C 561.542969 746.785156 561.222656 746.617188 560.910156 746.433594 C 560.21875 746.019531 559.59375 745.527344 559.035156 744.949219 C 558.472656 744.371094 558 743.730469 557.609375 743.027344 C 557.222656 742.320312 556.929688 741.578125 556.738281 740.796875 C 556.546875 740.015625 556.460938 739.222656 556.480469 738.417969 Z M 556.480469 738.417969 " fill-opacity="1" fill-rule="nonzero"/><path fill="#a7c957" d="M 61.511719 796.871094 C 67.910156 793.371094 89.925781 782.808594 87.316406 804.757812 C 84.570312 827.839844 64.023438 810.523438 59.949219 806.835938 C 60.554688 806.175781 61.054688 805.441406 61.445312 804.632812 C 61.835938 803.824219 62.101562 802.980469 62.238281 802.09375 C 62.378906 801.207031 62.386719 800.316406 62.261719 799.429688 C 62.140625 798.539062 61.886719 797.6875 61.511719 796.875 Z M 61.511719 796.871094 " fill-opacity="1" fill-rule="nonzero"/><path fill="#a7c957" d="M 68.578125 769.996094 C 88.320312 780.675781 66.933594 792.902344 61 795.917969 C 60.527344 795.15625 59.953125 794.476562 59.28125 793.882812 C 58.609375 793.289062 57.863281 792.804688 57.046875 792.429688 C 56.230469 792.058594 55.378906 791.8125 54.488281 791.691406 C 53.597656 791.570312 52.710938 791.582031 51.824219 791.722656 C 50.976562 785.421875 48.519531 759.148438 68.578125 769.996094 Z M 68.578125 769.996094 " fill-opacity="1" fill-rule="nonzero"/><path fill="#a7c957" d="M 49.597656 808.988281 C 50.398438 809.339844 51.230469 809.574219 52.101562 809.6875 C 52.96875 809.800781 53.832031 809.789062 54.699219 809.648438 C 55.5625 809.511719 56.390625 809.253906 57.179688 808.878906 C 57.96875 808.503906 58.6875 808.023438 59.339844 807.4375 C 63.460938 811.996094 80.644531 832.53125 57.828125 834.90625 C 35.183594 837.261719 46.582031 814.425781 49.597656 808.988281 Z M 49.597656 808.988281 " fill-opacity="1" fill-rule="nonzero"/><path fill="#a7c957" d="M 28.667969 775.785156 C 45.695312 760.453125 49.867188 786.035156 50.589844 792.007812 C 49.796875 792.25 49.054688 792.597656 48.359375 793.042969 C 47.664062 793.492188 47.039062 794.027344 46.488281 794.644531 C 45.9375 795.261719 45.480469 795.941406 45.117188 796.6875 C 44.75 797.429688 44.492188 798.207031 44.339844 799.023438 C 40.203125 798.222656 10.804688 791.875 28.667969 775.785156 Z M 28.667969 775.785156 " fill-opacity="1" fill-rule="nonzero"/><path fill="#a7c957" d="M 44.21875 799.957031 C 44.207031 800.128906 44.199219 800.296875 44.195312 800.46875 C 44.175781 801.273438 44.261719 802.070312 44.453125 802.851562 C 44.644531 803.632812 44.9375 804.375 45.324219 805.082031 C 45.714844 805.785156 46.191406 806.425781 46.753906 807.003906 C 47.3125 807.582031 47.941406 808.078125 48.632812 808.488281 C 45.902344 813.144531 30.90625 836.957031 21.757812 815.417969 C 12.804688 794.335938 38.324219 798.699219 44.21875 799.957031 Z M 44.21875 799.957031 " fill-opacity="1" fill-rule="nonzero"/><path fill="#f78e69" d="M 44.195312 800.46875 C 44.195312 800.296875 44.207031 800.128906 44.21875 799.957031 C 44.246094 799.644531 44.285156 799.332031 44.34375 799.023438 C 44.496094 798.207031 44.753906 797.429688 45.117188 796.6875 C 45.484375 795.945312 45.941406 795.261719 46.488281 794.644531 C 47.039062 794.027344 47.664062 793.492188 48.359375 793.046875 C 49.054688 792.597656 49.796875 792.25 50.589844 792.007812 C 50.992188 791.878906 51.402344 791.785156 51.820312 791.71875 C 52.707031 791.578125 53.59375 791.566406 54.484375 791.6875 C 55.375 791.808594 56.226562 792.054688 57.042969 792.425781 C 57.859375 792.800781 58.605469 793.285156 59.277344 793.878906 C 59.953125 794.472656 60.523438 795.152344 60.996094 795.914062 C 61.1875 796.222656 61.359375 796.539062 61.507812 796.867188 C 61.886719 797.683594 62.136719 798.535156 62.261719 799.421875 C 62.382812 800.3125 62.375 801.199219 62.238281 802.085938 C 62.097656 802.972656 61.832031 803.820312 61.441406 804.625 C 61.050781 805.433594 60.554688 806.167969 59.945312 806.828125 C 59.75 807.039062 59.546875 807.242188 59.332031 807.433594 C 58.679688 808.019531 57.960938 808.5 57.171875 808.875 C 56.378906 809.25 55.554688 809.507812 54.6875 809.644531 C 53.824219 809.78125 52.960938 809.796875 52.089844 809.683594 C 51.222656 809.570312 50.390625 809.335938 49.589844 808.984375 C 49.257812 808.835938 48.9375 808.667969 48.625 808.484375 C 47.933594 808.074219 47.308594 807.578125 46.746094 807 C 46.1875 806.421875 45.710938 805.78125 45.324219 805.078125 C 44.933594 804.375 44.644531 803.628906 44.453125 802.847656 C 44.261719 802.066406 44.175781 801.273438 44.195312 800.46875 Z M 44.195312 800.46875 " fill-opacity="1" fill-rule="nonzero"/><path fill="#fed273" d="M 403.128906 796.871094 C 409.527344 793.371094 431.542969 782.808594 428.933594 804.757812 C 426.191406 827.839844 405.640625 810.523438 401.566406 806.835938 C 402.175781 806.175781 402.671875 805.441406 403.0625 804.632812 C 403.453125 803.824219 403.71875 802.980469 403.859375 802.09375 C 403.996094 801.207031 404.003906 800.316406 403.878906 799.429688 C 403.757812 798.539062 403.507812 797.6875 403.128906 796.875 Z M 403.128906 796.871094 " fill-opacity="1" fill-rule="nonzero"/><path fill="#fed273" d="M 410.195312 769.996094 C 429.9375 780.675781 408.550781 792.902344 402.617188 795.917969 C 402.144531 795.15625 401.574219 794.476562 400.898438 793.882812 C 400.226562 793.289062 399.480469 792.804688 398.664062 792.429688 C 397.847656 792.058594 396.996094 791.8125 396.105469 791.691406 C 395.214844 791.570312 394.328125 791.582031 393.441406 791.722656 C 392.59375 785.421875 390.136719 759.148438 410.195312 769.996094 Z M 410.195312 769.996094 " fill-opacity="1" fill-rule="nonzero"/><path fill="#fed273" d="M 391.214844 808.988281 C 392.015625 809.339844 392.851562 809.574219 393.71875 809.6875 C 394.585938 809.800781 395.453125 809.789062 396.316406 809.648438 C 397.179688 809.511719 398.007812 809.253906 398.796875 808.878906 C 399.585938 808.503906 400.308594 808.023438 400.957031 807.4375 C 405.078125 811.996094 422.265625 832.53125 399.445312 834.90625 C 376.804688 837.261719 388.199219 814.425781 391.214844 808.988281 Z M 391.214844 808.988281 " fill-opacity="1" fill-rule="nonzero"/><path fill="#fed273" d="M 370.285156 775.785156 C 387.3125 760.453125 391.484375 786.035156 392.207031 792.007812 C 391.417969 792.25 390.671875 792.597656 389.976562 793.042969 C 389.28125 793.492188 388.65625 794.027344 388.105469 794.644531 C 387.554688 795.261719 387.097656 795.941406 386.734375 796.6875 C 386.371094 797.429688 386.113281 798.207031 385.960938 799.023438 C 381.820312 798.222656 352.421875 791.875 370.285156 775.785156 Z M 370.285156 775.785156 " fill-opacity="1" fill-rule="nonzero"/><path fill="#fed273" d="M 385.839844 799.957031 C 385.824219 800.128906 385.816406 800.296875 385.8125 800.46875 C 385.792969 801.273438 385.878906 802.070312 386.070312 802.851562 C 386.261719 803.632812 386.554688 804.375 386.945312 805.082031 C 387.332031 805.785156 387.808594 806.425781 388.371094 807.003906 C 388.929688 807.582031 389.558594 808.078125 390.25 808.488281 C 387.519531 813.144531 372.523438 836.957031 363.375 815.417969 C 354.421875 794.335938 379.945312 798.699219 385.839844 799.957031 Z M 385.839844 799.957031 " fill-opacity="1" fill-rule="nonzero"/><path fill="#6a994e" d="M 385.8125 800.46875 C 385.8125 800.296875 385.824219 800.128906 385.839844 799.957031 C 385.863281 799.644531 385.90625 799.332031 385.960938 799.023438 C 386.113281 798.207031 386.371094 797.429688 386.734375 796.6875 C 387.101562 795.945312 387.558594 795.261719 388.109375 794.644531 C 388.660156 794.027344 389.28125 793.492188 389.976562 793.046875 C 390.671875 792.597656 391.417969 792.25 392.207031 792.007812 C 392.609375 791.878906 393.019531 791.785156 393.4375 791.71875 C 394.324219 791.578125 395.214844 791.566406 396.101562 791.6875 C 396.992188 791.808594 397.84375 792.054688 398.660156 792.425781 C 399.476562 792.800781 400.222656 793.285156 400.898438 793.878906 C 401.570312 794.472656 402.140625 795.152344 402.613281 795.914062 C 402.804688 796.222656 402.976562 796.539062 403.128906 796.867188 C 403.503906 797.683594 403.753906 798.535156 403.878906 799.421875 C 404.003906 800.3125 403.996094 801.199219 403.855469 802.085938 C 403.714844 802.972656 403.449219 803.820312 403.0625 804.625 C 402.671875 805.433594 402.171875 806.167969 401.5625 806.828125 C 401.367188 807.039062 401.164062 807.242188 400.949219 807.433594 C 400.300781 808.019531 399.578125 808.5 398.789062 808.875 C 398 809.25 397.171875 809.507812 396.308594 809.644531 C 395.441406 809.78125 394.578125 809.796875 393.710938 809.683594 C 392.84375 809.570312 392.007812 809.335938 391.207031 808.984375 C 390.875 808.835938 390.554688 808.667969 390.242188 808.484375 C 389.550781 808.074219 388.925781 807.578125 388.367188 807 C 387.804688 806.421875 387.332031 805.78125 386.941406 805.078125 C 386.550781 804.375 386.261719 803.628906 386.070312 802.847656 C 385.878906 802.066406 385.792969 801.273438 385.8125 800.46875 Z M 385.8125 800.46875 " fill-opacity="1" fill-rule="nonzero"/><g clip-path="url(#a28f76623b)"><g mask="url(#1393df8bb2)"><g transform="matrix(1, 0, 0, 1, 0, -0.00000000000004247)"><g clip-path="url(#e2141fe853)"><g clip-path="url(#91aa7ee7a9)"><g transform="matrix(1, 0, 0, 1, 0, -0.00000000000004247)"><g clip-path="url(#1294f6144e)"><g clip-path="url(#62316d2c6c)"><path fill="url(#bb56c77ab7)" d="M 1124.824219 843.5 L 1124.824219 0 L 0.167969 0 L 0.167969 843.5 Z M 1124.824219 843.5 " fill-rule="nonzero"/></g></g></g></g></g></g></g></g></svg>